/* XPM */
static char * C:\Users\TheophelSoftworks\Desktop\Images\share\pixmaps\bitcoin16_xpm[] = {
"16 16 101 2",
"  	c None",
". 	c #000000",
"+ 	c #010101",
"@ 	c #010000",
"# 	c #1F1001",
"$ 	c #2D2009",
"% 	c #453919",
"& 	c #514B28",
"* 	c #585430",
"= 	c #463E20",
"- 	c #201A0B",
"; 	c #060504",
"> 	c #030303",
", 	c #030100",
"' 	c #4E2E06",
") 	c #674D1D",
"! 	c #786430",
"~ 	c #93864B",
"{ 	c #9E9759",
"] 	c #8F8046",
"^ 	c #78622D",
"/ 	c #422F11",
"( 	c #060505",
"_ 	c #4F2F06",
": 	c #654B1C",
"< 	c #67582B",
"[ 	c #93874B",
"} 	c #9F9759",
"| 	c #8C7E44",
"1 	c #7C6530",
"2 	c #624315",
"3 	c #1C1106",
"4 	c #664C1C",
"5 	c #7C6A34",
"6 	c #746A3A",
"7 	c #777141",
"8 	c #877840",
"9 	c #725B29",
"0 	c #614315",
"a 	c #331D06",
"b 	c #664D1C",
"c 	c #6D5B2C",
"d 	c #5F572E",
"e 	c #635E36",
"f 	c #81723C",
"g 	c #735D2A",
"h 	c #351E05",
"i 	c #564017",
"j 	c #7D6832",
"k 	c #92864B",
"l 	c #9E9658",
"m 	c #8A7C43",
"n 	c #7A642E",
"o 	c #5F4013",
"p 	c #211305",
"q 	c #502F06",
"r 	c #543E16",
"s 	c #7A6631",
"t 	c #8F8349",
"u 	c #9B9356",
"v 	c #887A42",
"w 	c #77612D",
"x 	c #5C3F13",
"y 	c #231405",
"z 	c #74612F",
"A 	c #716738",
"B 	c #787241",
"C 	c #85773F",
"D 	c #6F5A29",
"E 	c #5E4114",
"F 	c #3A2105",
"G 	c #654C1C",
"H 	c #726739",
"I 	c #746E40",
"J 	c #84753F",
"K 	c #604315",
"L 	c #3A2004",
"M 	c #020201",
"N 	c #796631",
"O 	c #968A4D",
"P 	c #A29A5B",
"Q 	c #8D7F45",
"R 	c #604213",
"S 	c #211203",
"T 	c #020202",
"U 	c #513006",
"V 	c #63481A",
"W 	c #7E6A33",
"X 	c #93874C",
"Y 	c #8E8046",
"Z 	c #76602C",
"` 	c #45310F",
" .	c #030201",
"..	c #251402",
"+.	c #3D2B0C",
"@.	c #4B3E1B",
"#.	c #58502B",
"$.	c #5F5B33",
"%.	c #4C4423",
"&.	c #221B09",
"*.	c #020100",
"          . . . . . .           ",
"      . . . . . + + + + +       ",
"    . @ # $ % & * = - ; > .     ",
"  . . , ' ) ! ~ { ] ^ / ( + .   ",
"  . . , _ : < [ } | 1 2 3 + .   ",
". . . , _ 4 5 6 7 8 9 0 a + . . ",
". . . , _ b c d e f g 0 h + . . ",
". . . , _ i j k l m n o p + . . ",
". . . , q r s t u v w x y + . . ",
". . . , q ) z A B C D E F + . . ",
". . . , q G 5 H I J D K L M . . ",
"  . . , q ) N O P Q w R S T .   ",
"  . . , U V W X } Y Z `  .+ .   ",
"    . @ ..+.@.#.$.%.&.*.. .     ",
"      . . . . . . . . . .       ",
"          . . . . . .           "};
