/* XPM */
static char * C:\Users\TheophelSoftworks\Desktop\Images\share\pixmaps\bitcoin32_xpm[] = {
"32 32 298 2",
"  	c None",
". 	c #000000",
"+ 	c #010101",
"@ 	c #020202",
"# 	c #030303",
"$ 	c #040404",
"% 	c #130701",
"& 	c #3B2204",
"* 	c #1A1004",
"= 	c #4C3915",
"- 	c #56451E",
"; 	c #5E5028",
"> 	c #665C31",
", 	c #6E673A",
"' 	c #757142",
") 	c #726C3F",
"! 	c #645B32",
"~ 	c #473F20",
"{ 	c #221C0C",
"] 	c #090805",
"^ 	c #050505",
"/ 	c #281401",
"( 	c #6A400A",
"_ 	c #36240A",
": 	c #8A692A",
"< 	c #8C7134",
"[ 	c #978242",
"} 	c #A39350",
"| 	c #B0A45F",
"1 	c #BAB36B",
"2 	c #B6AC65",
"3 	c #AC9D58",
"4 	c #A6924E",
"5 	c #937B3C",
"6 	c #655023",
"7 	c #201709",
"8 	c #6B410B",
"9 	c #372509",
"0 	c #846528",
"a 	c #352910",
"b 	c #67582C",
"c 	c #736737",
"d 	c #7C7341",
"e 	c #847E4B",
"f 	c #807947",
"g 	c #776D3C",
"h 	c #65592E",
"i 	c #665428",
"j 	c #85682D",
"k 	c #72531F",
"l 	c #211607",
"m 	c #060606",
"n 	c #362B10",
"o 	c #8C793E",
"p 	c #9C8C4C",
"q 	c #A99D5A",
"r 	c #B3AB66",
"s 	c #AEA561",
"t 	c #A59754",
"u 	c #A6924D",
"v 	c #8F783B",
"w 	c #4E3D1A",
"x 	c #74531D",
"y 	c #5C3D11",
"z 	c #0B0806",
"A 	c #32280F",
"B 	c #726231",
"C 	c #7E713D",
"D 	c #887F48",
"E 	c #918B52",
"F 	c #8D854E",
"G 	c #796F3E",
"H 	c #544925",
"I 	c #877036",
"J 	c #85692F",
"K 	c #463110",
"L 	c #724A13",
"M 	c #241506",
"N 	c #413517",
"O 	c #A48E49",
"P 	c #958649",
"Q 	c #9D9254",
"R 	c #A6A05F",
"S 	c #A3995A",
"T 	c #A59654",
"U 	c #9C8A49",
"V 	c #473B1B",
"W 	c #8A6C2F",
"X 	c #533D16",
"Y 	c #6A440F",
"Z 	c #3F2507",
"` 	c #050404",
" .	c #A28B47",
"..	c #383016",
"+.	c #110F05",
"@.	c #131207",
"#.	c #131107",
"$.	c #2C2712",
"%.	c #988546",
"&.	c #69592C",
"*.	c #755B25",
"=.	c #654B1C",
"-.	c #5F3C0D",
";.	c #4A2B07",
">.	c #3A2E13",
",.	c #87733B",
"'.	c #2B2410",
").	c #010100",
"!.	c #020201",
"~.	c #171407",
"{.	c #907D41",
"].	c #736130",
"^.	c #725824",
"/.	c #664C1C",
"(.	c #5D3A0C",
"_.	c #4C2C07",
":.	c #362509",
"<.	c #876729",
"[.	c #685425",
"}.	c #6F5E2F",
"|.	c #766A38",
"1.	c #7E7643",
"2.	c #87814D",
"3.	c #837C48",
"4.	c #8A7D46",
"5.	c #564823",
"6.	c #83662B",
"7.	c #584118",
"8.	c #653F0E",
"9.	c #452806",
"0.	c #2F1F07",
"a.	c #745823",
"b.	c #826930",
"c.	c #8E7A3E",
"d.	c #99894B",
"e.	c #A49A58",
"f.	c #AFA864",
"g.	c #AAA15F",
"h.	c #998C4F",
"i.	c #675B2F",
"j.	c #6B5829",
"k.	c #8A6D30",
"l.	c #3C2A0E",
"m.	c #714912",
"n.	c #301C06",
"o.	c #281905",
"p.	c #60481B",
"q.	c #6C5827",
"r.	c #766532",
"s.	c #80723D",
"t.	c #8A8049",
"u.	c #928C53",
"v.	c #8F874E",
"w.	c #877B44",
"x.	c #938143",
"y.	c #99803F",
"z.	c #54431D",
"A.	c #5D4115",
"B.	c #694613",
"C.	c #120A04",
"D.	c #6C410B",
"E.	c #2B1C06",
"F.	c #6B511F",
"G.	c #79612C",
"H.	c #837139",
"I.	c #8E8045",
"J.	c #998F51",
"K.	c #A29C5C",
"L.	c #9F9557",
"M.	c #96894C",
"N.	c #9C8948",
"O.	c #957D3D",
"P.	c #493918",
"Q.	c #624517",
"R.	c #684513",
"S.	c #2A1B06",
"T.	c #644C1D",
"U.	c #715B29",
"V.	c #7B6A35",
"W.	c #857840",
"X.	c #8F854C",
"Y.	c #989256",
"Z.	c #948C52",
"`.	c #837843",
" +	c #514724",
".+	c #6C592A",
"++	c #876B2F",
"@+	c #35250C",
"#+	c #694410",
"$+	c #361F05",
"%+	c #89692A",
"&+	c #7E662F",
"*+	c #87743B",
"=+	c #928347",
"-+	c #A7A05F",
";+	c #A39A5A",
">+	c #A09252",
",+	c #A4914D",
"'+	c #4E411F",
")+	c #7E6229",
"!+	c #5B4319",
"~+	c #5A380B",
"{+	c #4D2D06",
"]+	c #382C12",
"^+	c #786735",
"/+	c #2A2410",
"(+	c #121106",
"_+	c #201C0C",
":+	c #8D7B3F",
"<+	c #776532",
"[+	c #695120",
"}+	c #6B4F1D",
"|+	c #543409",
"1+	c #553106",
"2+	c #060403",
"3+	c #423517",
"4+	c #A18B47",
"5+	c #372F16",
"6+	c #0D0B04",
"7+	c #0E0D05",
"8+	c #0D0C04",
"9+	c #1D190A",
"0+	c #8C7A3F",
"a+	c #674F1F",
"b+	c #6C501D",
"c+	c #56350A",
"d+	c #A58E49",
"e+	c #918247",
"f+	c #998E52",
"g+	c #A29B5C",
"h+	c #9E9558",
"i+	c #9C8E50",
"j+	c #A5914D",
"k+	c #504420",
"l+	c #7E6129",
"m+	c #5C4419",
"n+	c #613D0C",
"o+	c #4C2C05",
"p+	c #382D12",
"q+	c #7C6A36",
"r+	c #897B43",
"s+	c #94894F",
"t+	c #9D9659",
"u+	c #999054",
"v+	c #877C45",
"w+	c #5B5029",
"x+	c #77622E",
"y+	c #866A2F",
"z+	c #3C2A0D",
"A+	c #321C03",
"B+	c #836A30",
"C+	c #8D7A3E",
"D+	c #998A4B",
"E+	c #A49958",
"F+	c #A09352",
"G+	c #A28E4B",
"H+	c #4A3A18",
"I+	c #694B19",
"J+	c #644311",
"K+	c #0D0501",
"L+	c #2C1C06",
"M+	c #5F481B",
"N+	c #6B5727",
"O+	c #756532",
"P+	c #7F713D",
"Q+	c #897F48",
"R+	c #8D864E",
"S+	c #827742",
"T+	c #584922",
"U+	c #7C6029",
"V+	c #775720",
"W+	c #2A1B05",
"X+	c #70440C",
"Y+	c #6E4B17",
"Z+	c #795B24",
"`+	c #856B32",
" @	c #907C3F",
".@	c #9C8C4D",
"+@	c #A89C5A",
"@@	c #B2AB66",
"#@	c #AEA460",
"$@	c #A59755",
"%@	c #967E3E",
"&@	c #6D5625",
"*@	c #271C07",
"=@	c #010000",
"-@	c #140801",
";@	c #442805",
">@	c #4E350F",
",@	c #574118",
"'@	c #604D22",
")@	c #716536",
"!@	c #7A7240",
"~@	c #827D49",
"{@	c #7E7745",
"]@	c #706638",
"^@	c #28210D",
"/@	c #080501",
"                        . . . . . . . .                         ",
"                  . . . . . . . . . . . . . .                   ",
"              . . . . . . . . . . . . . . . . . .               ",
"            . . . . . . . . . . + + + + + + + + + .             ",
"          . . . . . . . . . . + + @ # # $ $ $ # # @ .           ",
"        . . . . % & * = - ; > , ' ) ! ~ { ] ^ ^ $ @ + .         ",
"      . . . . . / ( _ : < [ } | 1 2 3 4 5 6 7 ^ ^ $ + . .       ",
"    . . . . . . / 8 9 0 a b c d e f g h i j k l m ^ @ . . .     ",
"    . . . . . . / 8 9 0 n o p q r s t u v w x y z ^ @ . . .     ",
"  . . . . . . . / 8 9 0 A B C D E F G H I J K L M $ + . . . .   ",
"  . . . . . . . / 8 9 0 N O P Q R S T U V W X Y Z ` + . . . .   ",
"  . . . . . . . / 8 9 0 N  ...+.@.#.$.%.&.*.=.-.;.` + . . . .   ",
". . . . . . . . / 8 9 0 >.,.'.).!.!.~.{.].^./.(._.` + . . . . . ",
". . . . . . . . / 8 :.<.[.}.|.1.2.3.4.u 5.6.7.8.9.$ + . . . . . ",
". . . . . . . . / 8 0.a.b.c.d.e.f.g.h.i.j.k.l.m.n.$ + . . . . . ",
". . . . . . . . / 8 o.p.q.r.s.t.u.v.w.x.y.z.A.B.C.# + . . . . . ",
". . . . . . . . / D.E.F.G.H.I.J.K.L.M.N.O.P.Q.R.C.# + . . . . . ",
". . . . . . . . / D.S.T.U.V.W.X.Y.Z.`. +.+++@+#+$+$ + . . . . . ",
". . . . . . . . / D.:.%+&+*+=+Q -+;+>+,+'+)+!+~+{+` @ . . . . . ",
". . . . . . . . / D.:.0 ]+^+/++.@.(+_+:+<+[+}+|+1+2++ . . . . . ",
"  . . . . . . . / D.:.0 3+4+5+6+7+8+9+0+<+a+b+c+1+2+@ . . . .   ",
"  . . . . . . . / D.:.0 3+d+e+f+g+h+i+j+k+l+m+n+o+# # + . . .   ",
"  . . . . . . . / D.:.0 p+q+r+s+t+u+v+w+x+y+z+m.A+# # + . . .   ",
"    . . . . . . / D.:.%+B+C+D+E+f.g.F+G+v H+I+J+K+@ @ + . .     ",
"    . . . . . . / D.L+M+N+O+P+Q+E R+S+i.T+U+V+W+. @ @ + . .     ",
"      . . . . . / X+Y+Z+`+ @.@+@@@#@$@G+%@&@*@=@. + + . .       ",
"        . . . . -@;@>@,@'@&.)@!@~@{@]@H ^@/@. . . + . .         ",
"          . . . . . . =@=@).).).).).).. . . . . . . .           ",
"            . . . . . . . . . . . . . . . . . . . .             ",
"              . . . . . . . . . . . . . . . . . .               ",
"                  . . . . . . . . . . . . . .                   ",
"                        . . . . . . . .                         "};
